<svg id="Layer_1" data-name="Layer 1" xmlns="http://www.w3.org/2000/svg" width="2492" height="507" viewBox="0 0 2492 507">
  <defs>
    <style>
      .cls-1 {
        fill: #fff;
      }
    </style>
  </defs>
  <title>123Artboard 30</title>
  <g>
    <g>
      <path class="cls-1" d="M700,468.84,348.46.16h-95L631.74,506.84h128.4v-7.92h0A75.21,75.21,0,0,1,700,468.84Z"/>
      <path class="cls-1" d="M60.29,38.16,411.8,506.84h95L128.52.16H.12V8.08h0A75.21,75.21,0,0,1,60.29,38.16Z"/>
      <path class="cls-1" d="M752.22.16H625.55V8.08h0a59.38,59.38,0,0,1,59.38,59.38V71.3h7.92V67.45A59.38,59.38,0,0,1,752.22,8.08h0Z"/>
      <path class="cls-1" d="M8.11,506.84H134.78v-7.92h0a59.38,59.38,0,0,1-59.38-59.38V435.7H67.49v3.85A59.38,59.38,0,0,1,8.11,498.92h0Z"/>
    </g>
    <g>
      <path class="cls-1" d="M1188.23,380.38l-148-226.43V378.61h-24.13V130.17h34.43l144.09,220.4V130.17h24.13V380.38Z"/>
      <path class="cls-1" d="M1340.5,253c0-79.15,56.79-128.12,122.09-128.12S1584.32,173.47,1584.32,253c0,77.37-55,129.19-121.73,129.19C1395.16,382.15,1340.5,330.69,1340.5,253Zm217.91,0c0-64.59-42.94-105.76-95.82-105.76-53.24,0-95.83,41.17-95.83,105.76,0,63.17,42.23,106.83,95.83,106.83S1558.41,316.5,1558.41,253Z"/>
      <path class="cls-1" d="M1706.08,130.17H1782c79.85,0,130.25,38.69,130.25,122.8,0,78.43-50.4,125.64-130.61,125.64h-75.6Zm73.47,227.14c69.21,0,106.83-40.81,106.83-104.34,0-66.37-37.62-101.5-106.83-101.5h-48.62V357.31Z"/>
      <path class="cls-1" d="M2203.32,378.61H2034V130.17h166.81v21.29h-142v87.66h132.38v21.29H2058.87v96.89h144.45Z"/>
      <path class="cls-1" d="M2304.84,301.95h24.49c3.19,38,30.88,59.27,70.63,59.27,34.78,0,66.72-17,66.72-47.2,0-27.68-22.36-39-57.85-47.91l-28-6.74c-44-11-66.72-29.1-66.72-64.59,0-41.88,39.39-69.92,86.6-69.92,50,0,83,26.62,87.66,73.47h-24.13c-4.26-31.94-26.26-52.53-63.53-52.53-33,0-62.11,19.87-62.11,47.2,0,24.13,17,35.14,49,42.94l30.52,7.81c45.07,11,73.82,28.75,73.82,68.14,0,47.2-46.14,70.27-91.92,70.27C2346.72,382.15,2309.1,355.18,2304.84,301.95Z"/>
    </g>
  </g>
</svg>
