<svg xmlns="http://www.w3.org/2000/svg" width="25" height="26" viewBox="0 0 25 26" fill="none">
  <g clip-path="url(#clip0_31_104)">
    <path d="M16.6667 13.2529C16.6667 14.4031 16.2598 15.3851 15.446 16.1989C14.6322 17.0127 13.6502 17.4196 12.5 17.4196C11.3498 17.4196 10.3678 17.0127 9.55404 16.1989C8.74023 15.3851 8.33333 14.4031 8.33333 13.2529C8.33333 12.1028 8.74023 11.1208 9.55404 10.307C10.3678 9.49316 11.3498 9.08626 12.5 9.08626C13.6502 9.08626 14.6322 9.49316 15.446 10.307C16.2598 11.1208 16.6667 12.1028 16.6667 13.2529ZM12.5 4.39876C10.8941 4.39876 9.41298 4.79481 8.05664 5.58691C6.7003 6.37901 5.62608 7.45323 4.83398 8.80957C4.04188 10.1659 3.64583 11.647 3.64583 13.2529C3.64583 14.8588 4.04188 16.34 4.83398 17.6963C5.62608 19.0526 6.7003 20.1268 8.05664 20.9189C9.41298 21.711 10.8941 22.1071 12.5 22.1071C14.1059 22.1071 15.587 21.711 16.9434 20.9189C18.2997 20.1268 19.3739 19.0526 20.166 17.6963C20.9581 16.34 21.3542 14.8588 21.3542 13.2529C21.3542 11.647 20.9581 10.1659 20.166 8.80957C19.3739 7.45323 18.2997 6.37901 16.9434 5.58691C15.587 4.79481 14.1059 4.39876 12.5 4.39876ZM25 13.2529C25 15.5207 24.4412 17.6122 23.3236 19.5273C22.2059 21.4425 20.6896 22.9589 18.7744 24.0765C16.8593 25.1941 14.7678 25.7529 12.5 25.7529C10.2322 25.7529 8.14073 25.1941 6.22559 24.0765C4.31044 22.9589 2.79405 21.4425 1.67643 19.5273C0.558811 17.6122 0 15.5207 0 13.2529C0 10.9851 0.558811 8.89366 1.67643 6.97852C2.79405 5.06337 4.31044 3.54698 6.22559 2.42936C8.14073 1.31174 10.2322 0.75293 12.5 0.75293C14.7678 0.75293 16.8593 1.31174 18.7744 2.42936C20.6896 3.54698 22.2059 5.06337 23.3236 6.97852C24.4412 8.89366 25 10.9851 25 13.2529Z" />
  </g>
  <defs>
    <clipPath id="clip0_31_104">
      <rect width="25" height="25" fill="white" transform="translate(0 0.75293)"/>
    </clipPath>
  </defs>
</svg>