<svg xmlns="http://www.w3.org/2000/svg" width="20" height="32" viewBox="0 0 20 32" fill="none">
  <path d="M15.6918 6.5547L18.121 3.02136C18.121 3.02136 15.3826 0.415527 10.6568 0.415527C4.62805 0.415527 0.895964 4.47886 0.895964 8.71886C0.895964 12.9589 4.71638 15.1893 4.71638 15.1893C4.71638 15.1893 0.123047 16.713 0.123047 22.4989C0.123047 28.3068 4.84888 31.3322 9.92805 31.3322C16.4205 31.3322 19.998 27.0039 19.998 27.0039L16.9064 23.603C16.9064 23.603 13.6822 26.6284 10.2593 26.6284C5.99721 26.6284 5.00346 24.0226 5.00346 22.3222C5.00346 20.0034 5.73221 17.3093 12.9976 17.3093L12.9755 13.1576C12.9755 13.1576 5.51138 13.9084 5.51138 8.76303C5.51138 5.29594 8.73555 4.65553 10.3697 4.65553C13.9914 4.65553 15.6918 6.5547 15.6918 6.5547Z" fill="#303341"/>
</svg>