<svg xmlns="http://www.w3.org/2000/svg" width="54" height="54" viewBox="0 0 54 54" fill="none">
  <path d="M12.375 38.25C13.2701 38.25 14.1286 38.6056 14.7615 39.2385C15.3944 39.8715 15.75 40.7299 15.75 41.625C15.75 42.5201 15.3944 43.3785 14.7615 44.0115C14.1286 44.6444 13.2701 45 12.375 45C11.4799 45 10.6214 44.6444 9.98851 44.0115C9.35558 43.3785 9 42.5201 9 41.625C9 40.7299 9.35558 39.8715 9.98851 39.2385C10.6214 38.6056 11.4799 38.25 12.375 38.25ZM27 38.25C27.8951 38.25 28.7536 38.6056 29.3865 39.2385C30.0194 39.8715 30.375 40.7299 30.375 41.625C30.375 42.5201 30.0194 43.3785 29.3865 44.0115C28.7536 44.6444 27.8951 45 27 45C26.1049 45 25.2464 44.6444 24.6135 44.0115C23.9806 43.3785 23.625 42.5201 23.625 41.625C23.625 40.7299 23.9806 39.8715 24.6135 39.2385C25.2464 38.6056 26.1049 38.25 27 38.25ZM41.625 38.25C42.5201 38.25 43.3785 38.6056 44.0115 39.2385C44.6444 39.8715 45 40.7299 45 41.625C45 42.5201 44.6444 43.3785 44.0115 44.0115C43.3785 44.6444 42.5201 45 41.625 45C40.7299 45 39.8715 44.6444 39.2385 44.0115C38.6056 43.3785 38.25 42.5201 38.25 41.625C38.25 40.7299 38.6056 39.8715 39.2385 39.2385C39.8715 38.6056 40.7299 38.25 41.625 38.25ZM12.375 23.625C13.2701 23.625 14.1286 23.9806 14.7615 24.6135C15.3944 25.2464 15.75 26.1049 15.75 27C15.75 27.8951 15.3944 28.7536 14.7615 29.3865C14.1286 30.0194 13.2701 30.375 12.375 30.375C11.4799 30.375 10.6214 30.0194 9.98851 29.3865C9.35558 28.7536 9 27.8951 9 27C9 26.1049 9.35558 25.2464 9.98851 24.6135C10.6214 23.9806 11.4799 23.625 12.375 23.625ZM27 23.625C27.8951 23.625 28.7536 23.9806 29.3865 24.6135C30.0194 25.2464 30.375 26.1049 30.375 27C30.375 27.8951 30.0194 28.7536 29.3865 29.3865C28.7536 30.0194 27.8951 30.375 27 30.375C26.1049 30.375 25.2464 30.0194 24.6135 29.3865C23.9806 28.7536 23.625 27.8951 23.625 27C23.625 26.1049 23.9806 25.2464 24.6135 24.6135C25.2464 23.9806 26.1049 23.625 27 23.625ZM41.625 23.625C42.5201 23.625 43.3785 23.9806 44.0115 24.6135C44.6444 25.2464 45 26.1049 45 27C45 27.8951 44.6444 28.7536 44.0115 29.3865C43.3785 30.0194 42.5201 30.375 41.625 30.375C40.7299 30.375 39.8715 30.0194 39.2385 29.3865C38.6056 28.7536 38.25 27.8951 38.25 27C38.25 26.1049 38.6056 25.2464 39.2385 24.6135C39.8715 23.9806 40.7299 23.625 41.625 23.625ZM12.375 9C12.8182 9 13.2571 9.0873 13.6666 9.25691C14.076 9.42652 14.4481 9.67512 14.7615 9.98851C15.0749 10.3019 15.3235 10.674 15.4931 11.0834C15.6627 11.4929 15.75 11.9318 15.75 12.375C15.75 12.8182 15.6627 13.2571 15.4931 13.6666C15.3235 14.076 15.0749 14.4481 14.7615 14.7615C14.4481 15.0749 14.076 15.3235 13.6666 15.4931C13.2571 15.6627 12.8182 15.75 12.375 15.75C11.4799 15.75 10.6214 15.3944 9.98851 14.7615C9.35558 14.1286 9 13.2701 9 12.375C9 11.4799 9.35558 10.6214 9.98851 9.98851C10.6214 9.35558 11.4799 9 12.375 9ZM27 9C27.4432 9 27.8821 9.0873 28.2916 9.25691C28.701 9.42652 29.0731 9.67512 29.3865 9.98851C29.6999 10.3019 29.9485 10.674 30.1181 11.0834C30.2877 11.4929 30.375 11.9318 30.375 12.375C30.375 12.8182 30.2877 13.2571 30.1181 13.6666C29.9485 14.076 29.6999 14.4481 29.3865 14.7615C29.0731 15.0749 28.701 15.3235 28.2916 15.4931C27.8821 15.6627 27.4432 15.75 27 15.75C26.1049 15.75 25.2464 15.3944 24.6135 14.7615C23.9806 14.1286 23.625 13.2701 23.625 12.375C23.625 11.4799 23.9806 10.6214 24.6135 9.98851C25.2464 9.35558 26.1049 9 27 9ZM41.625 9C42.0682 9 42.5071 9.0873 42.9166 9.25691C43.326 9.42652 43.6981 9.67512 44.0115 9.98851C44.3249 10.3019 44.5735 10.674 44.7431 11.0834C44.9127 11.4929 45 11.9318 45 12.375C45 12.8182 44.9127 13.2571 44.7431 13.6666C44.5735 14.076 44.3249 14.4481 44.0115 14.7615C43.6981 15.0749 43.326 15.3235 42.9166 15.4931C42.5071 15.6627 42.0682 15.75 41.625 15.75C40.7299 15.75 39.8715 15.3944 39.2385 14.7615C38.6056 14.1286 38.25 13.2701 38.25 12.375C38.25 11.4799 38.6056 10.6214 39.2385 9.98851C39.8715 9.35558 40.7299 9 41.625 9Z" fill="#D3D3D3"/>
</svg>