<svg xmlns="http://www.w3.org/2000/svg" width="50" height="50" viewBox="0 0 50 50" fill="none">
  <path d="M14.2042 45.8331V39.881C13.5833 33.6789 6.25 30.3581 6.25 20.8331C6.25 11.3123 11.9313 4.04976 23.2958 4.16643C31.4771 4.25392 39.2042 8.92892 39.2042 18.4539L43.75 25.5956C43.75 30.3581 39.2042 30.3581 39.2042 30.3581C39.2042 30.3581 40.3417 42.2623 30.1125 42.2623V45.8331" stroke="#D3D3D3" stroke-width="1.5" stroke-linecap="round" stroke-linejoin="round"/>
  <path d="M22.9167 24.9993C24.0217 24.9993 25.0815 24.5604 25.8629 23.779C26.6443 22.9976 27.0833 21.9378 27.0833 20.8327C27.0833 19.7276 26.6443 18.6678 25.8629 17.8864C25.0815 17.105 24.0217 16.666 22.9167 16.666C21.8116 16.666 20.7518 17.105 19.9704 17.8864C19.189 18.6678 18.75 19.7276 18.75 20.8327C18.75 21.9378 19.189 22.9976 19.9704 23.779C20.7518 24.5604 21.8116 24.9993 22.9167 24.9993Z" stroke="#D3D3D3" stroke-width="1.5" stroke-linecap="round" stroke-linejoin="round"/>
  <path d="M22.9165 27.083C24.5741 27.083 26.1638 26.4245 27.3359 25.2524C28.508 24.0803 29.1665 22.4906 29.1665 20.833C29.1665 19.1754 28.508 17.5857 27.3359 16.4136C26.1638 15.2415 24.5741 14.583 22.9165 14.583C21.2589 14.583 19.6692 15.2415 18.4971 16.4136C17.325 17.5857 16.6665 19.1754 16.6665 20.833C16.6665 22.4906 17.325 24.0803 18.4971 25.2524C19.6692 26.4245 21.2589 27.083 22.9165 27.083Z" stroke="#D3D3D3" stroke-width="1.5" stroke-linecap="round" stroke-linejoin="round"/>
</svg>