<svg xmlns="http://www.w3.org/2000/svg" width="50" height="40" viewBox="0 0 50 40" fill="none">
  <path d="M48.2143 0H1.78571C0.797991 0 0 0.795573 0 1.7803V37.3864C0 38.3711 0.797991 39.1667 1.78571 39.1667H48.2143C49.202 39.1667 50 38.3711 50 37.3864V1.7803C50 0.795573 49.202 0 48.2143 0ZM45.9821 35.161H4.01786V4.00568H45.9821V35.161ZM9.21317 30.5823C9.38616 30.7547 9.67076 30.7547 9.84375 30.5823L19.4699 20.9853L25.8538 27.3555C26.0268 27.5279 26.3114 27.5279 26.4844 27.3555L43.058 10.8209C43.231 10.6484 43.231 10.3647 43.058 10.1922L41.0045 8.14489C40.9206 8.06206 40.8073 8.01559 40.6892 8.01559C40.5711 8.01559 40.4578 8.06206 40.3739 8.14489L26.1719 22.3094L19.7879 15.9393C19.704 15.8564 19.5907 15.81 19.4727 15.81C19.3546 15.81 19.2413 15.8564 19.1574 15.9393L7.16518 27.9007C7.0821 27.9843 7.03549 28.0973 7.03549 28.215C7.03549 28.3327 7.0821 28.4457 7.16518 28.5294L9.21317 30.5823Z" fill="#D3D3D3"/>
</svg>