<svg width="31" height="23" viewBox="0 0 31 23" fill="none" xmlns="http://www.w3.org/2000/svg">
<path d="M6.69019 0.408704C6.56084 0.280897 6.40676 0.179026 6.23673 0.10891C6.06671 0.0387933 5.88409 0.001807 5.6993 6.45749e-05C5.51452 -0.00167785 5.33118 0.0318573 5.15979 0.0987542C4.98839 0.165651 4.83228 0.264599 4.70038 0.389942C3.20841 1.82637 2.02492 3.53466 1.21818 5.41627C0.411436 7.29788 -0.00258069 9.31556 1.2103e-05 11.3529C-0.00240775 13.4684 0.444191 15.5619 1.31209 17.5033C2.17999 19.4447 3.45067 21.1926 5.04526 22.6386C5.31364 22.8788 5.66815 23.0083 6.03352 22.9996C6.39889 22.9908 6.74635 22.8445 7.00213 22.5917C7.61438 21.9988 7.53882 21.055 6.94982 20.509C5.6701 19.328 4.65173 17.9073 3.95661 16.3333C3.26149 14.7593 2.90413 13.0648 2.90626 11.3529C2.90626 7.88934 4.34195 4.74849 6.67082 2.46321C7.23269 1.90971 7.29082 0.990344 6.69019 0.408704ZM10.1021 3.71655C9.84696 3.46229 9.49811 3.31636 9.13204 3.31073C8.76596 3.3051 8.4125 3.44024 8.14913 3.68653C7.10085 4.68836 6.26877 5.88208 5.70131 7.19823C5.13385 8.51437 4.84235 9.92666 4.84376 11.3529C4.84148 12.861 5.16686 14.3526 5.79874 15.7309C6.43062 17.1093 7.35487 18.3434 8.51144 19.3533C8.77736 19.5808 9.12348 19.7005 9.47807 19.6876C9.83265 19.6746 10.1685 19.5301 10.416 19.2839C11.0515 18.6684 10.9333 17.7003 10.3366 17.1562C9.51857 16.4116 8.86699 15.5124 8.4221 14.5142C7.9772 13.516 7.74846 12.4401 7.75001 11.3529C7.75001 9.19522 8.63544 7.2364 10.075 5.79919C10.6291 5.24757 10.7202 4.3132 10.1021 3.71655ZM20.8979 3.71655C21.153 3.46229 21.5019 3.31636 21.868 3.31073C22.234 3.3051 22.5875 3.44024 22.8509 3.68653C23.8992 4.68836 24.7312 5.88208 25.2987 7.19823C25.8661 8.51437 26.1577 9.92666 26.1562 11.3529C26.1585 12.861 25.8331 14.3526 25.2013 15.7309C24.5694 17.1093 23.6451 18.3434 22.4886 19.3533C22.2226 19.5808 21.8765 19.7005 21.5219 19.6876C21.1674 19.6746 20.8315 19.5301 20.584 19.2839C19.9485 18.6684 20.0667 17.7003 20.6634 17.1562C21.4814 16.4116 22.133 15.5124 22.5779 14.5142C23.0228 13.516 23.2515 12.4401 23.25 11.3529C23.25 9.19522 22.3646 7.2364 20.925 5.79919C20.3709 5.24757 20.2798 4.3132 20.8979 3.71655ZM24.3098 0.410581C24.4392 0.282774 24.5932 0.180902 24.7633 0.110786C24.9333 0.0406695 25.1159 0.00368357 25.3007 0.00194114C25.4855 0.00019872 25.6688 0.0337334 25.8402 0.10063C26.0116 0.167527 26.1677 0.266475 26.2996 0.391818C27.7914 1.82802 28.9747 3.53601 29.7815 5.41728C30.5882 7.29855 31.0023 9.31588 31 11.3529C31.0024 13.4684 30.5558 15.5619 29.6879 17.5033C28.82 19.4447 27.5493 21.1926 25.9547 22.6386C25.6864 22.8788 25.3319 23.0083 24.9665 22.9996C24.6011 22.9908 24.2536 22.8445 23.9979 22.5917C23.3856 21.9988 23.4612 21.055 24.0521 20.509C25.3315 19.3278 26.3495 17.9071 27.0443 16.3331C27.7391 14.7591 28.0961 13.0647 28.0937 11.3529C28.0937 7.88934 26.6581 4.74849 24.3292 2.46321C23.7673 1.90971 23.7092 0.990344 24.3098 0.408704V0.410581ZM15.5 8.53853C14.7292 8.53853 13.99 8.83504 13.445 9.36284C12.8999 9.89064 12.5938 10.6065 12.5938 11.3529C12.5938 12.0993 12.8999 12.8152 13.445 13.343C13.99 13.8708 14.7292 14.1673 15.5 14.1673C16.2708 14.1673 17.01 13.8708 17.555 13.343C18.1001 12.8152 18.4062 12.0993 18.4062 11.3529C18.4062 10.6065 18.1001 9.89064 17.555 9.36284C17.01 8.83504 16.2708 8.53853 15.5 8.53853Z"/>
</svg>
