<svg xmlns="http://www.w3.org/2000/svg" width="220" height="45" viewBox="0 0 220 45" fill="none">
  <path d="M104.408 33.1175L91.3461 13.2867V32.9614H89.2122V11.2021H92.2446L104.959 30.4979V11.2021H107.093V33.1063H104.408V33.1175Z" fill="white"/>
  <path d="M117.841 21.9592C117.841 15.0256 122.85 10.7451 128.612 10.7451C134.373 10.7451 139.349 15.0033 139.349 21.9592C139.349 28.7366 134.497 33.2735 128.612 33.2735C122.659 33.2735 117.841 28.7589 117.841 21.9592ZM137.058 21.9592C137.058 16.3076 133.273 12.6959 128.6 12.6959C123.906 12.6959 120.143 16.2964 120.143 21.9592C120.143 27.4882 123.872 31.3116 128.6 31.3116C133.34 31.3116 137.058 27.5216 137.058 21.9592Z" fill="white"/>
  <path d="M150.086 11.2021H156.791C163.833 11.2021 168.281 14.5909 168.281 21.9592C168.281 28.8258 163.833 32.9614 156.758 32.9614H150.086V11.2021ZM156.567 31.0887C162.677 31.0887 165.99 27.5105 165.99 21.948C165.99 16.1403 162.665 13.0637 156.567 13.0637H152.276V31.0887H156.567Z" fill="white"/>
  <path d="M193.956 32.9614H179.018V11.2021H193.731V13.0637H181.208V20.7441H192.889V22.6057H181.208V31.0887H193.956V32.9614Z" fill="white"/>
  <path d="M202.918 26.2514H205.075C205.356 29.5732 207.804 31.446 211.308 31.446C214.374 31.446 217.194 29.9523 217.194 27.3104C217.194 24.8914 215.217 23.8882 212.094 23.119L209.624 22.5282C205.738 21.5696 203.738 19.9755 203.738 16.8766C203.738 13.2092 207.209 10.7568 211.376 10.7568C215.79 10.7568 218.699 13.0866 219.114 17.1887H216.98C216.61 14.3908 214.666 12.585 211.376 12.585C208.467 12.585 205.895 14.3239 205.895 16.7206C205.895 18.8385 207.4 19.7972 210.219 20.4772L212.914 21.1571C216.89 22.1158 219.429 23.6764 219.429 27.1209C219.429 31.2565 215.363 33.2741 211.32 33.2741C206.614 33.2741 203.289 30.9109 202.918 26.2514Z" fill="white"/>
  <path d="M61.2252 40.8055L30.4732 0H22.1643L55.2552 44.12H66.4935V43.4327C64.4218 43.4327 62.4726 42.4572 61.2252 40.8055Z" fill="white"/>
  <path d="M5.26826 3.30346L36.0202 44.12H44.3292L11.2382 0H0V0.687297C2.07166 0.687297 4.02081 1.66282 5.26826 3.30346Z" fill="white"/>
  <path d="M65.803 0H54.7207V0.687297C57.5943 0.687297 59.911 3.00415 59.911 5.85311V6.18567H60.6016V5.85311C60.6016 2.99307 62.9294 0.687297 65.7919 0.687297V0H65.803Z" fill="white"/>
  <path d="M0.70166 44.1202H11.784V43.4329C8.91035 43.4329 6.59365 41.1161 6.59365 38.2671V37.9346H5.9031V38.2671C5.9031 41.1272 3.57526 43.4329 0.712798 43.4329V44.1202H0.70166Z" fill="white"/>
</svg>