<svg width="39" height="39" viewBox="0 0 39 39" fill="none" xmlns="http://www.w3.org/2000/svg">
<g clip-path="url(#clip0_184_2)">
<path fill-rule="evenodd" clip-rule="evenodd" d="M17.0623 3.25C14.8598 3.25019 12.6892 3.77709 10.7317 4.78675C8.77423 5.79641 7.08658 7.25955 5.80956 9.0541C4.53254 10.8486 3.70319 12.9226 3.3907 15.1028C3.07821 17.2831 3.29164 19.5065 4.01319 21.5874C4.73474 23.6684 5.94348 25.5467 7.53856 27.0656C9.13365 28.5844 11.0688 29.6998 13.1826 30.3186C15.2965 30.9374 17.5276 31.0418 19.69 30.623C21.8523 30.2042 23.8832 29.2743 25.6131 27.911L31.5476 33.8455C31.854 34.1415 32.2645 34.3053 32.6906 34.3016C33.1166 34.2979 33.5242 34.127 33.8255 33.8257C34.1268 33.5244 34.2977 33.1168 34.3014 32.6908C34.3051 32.2647 34.1413 31.8542 33.8453 31.5477L27.9108 25.6133C29.5163 23.5765 30.5159 21.1289 30.7953 18.5506C31.0747 15.9722 30.6226 13.3673 29.4907 11.0339C28.3587 8.70052 26.5927 6.73295 24.3948 5.35638C22.1968 3.9798 19.6557 3.24983 17.0623 3.25ZM6.4998 17.0625C6.4998 14.2612 7.61263 11.5745 9.59349 9.59368C11.5743 7.61283 14.261 6.5 17.0623 6.5C19.8637 6.5 22.5503 7.61283 24.5311 9.59368C26.512 11.5745 27.6248 14.2612 27.6248 17.0625C27.6248 19.8638 26.512 22.5505 24.5311 24.5313C22.5503 26.5122 19.8637 27.625 17.0623 27.625C14.261 27.625 11.5743 26.5122 9.59349 24.5313C7.61263 22.5505 6.4998 19.8638 6.4998 17.0625Z" fill="white"/>
</g>
<defs>
<clipPath id="clip0_184_2">
<rect width="39" height="39" fill="white"/>
</clipPath>
</defs>
</svg>
