<svg xmlns="http://www.w3.org/2000/svg" width="66" height="69" viewBox="0 0 66 69" fill="none">
  <g style="mix-blend-mode:plus-lighter" filter="url(#filter0_df_28_54)">
    <path d="M32.5714 60.8737C24.9938 60.8737 17.7266 57.8777 12.3684 52.5448C7.0102 47.2118 4 39.9788 4 32.4369C4 24.8949 7.0102 17.6619 12.3684 12.329C17.7266 6.99602 24.9938 4 32.5714 4C40.149 4 47.4163 6.99602 52.7745 12.329C58.1327 17.6619 61.1429 24.8949 61.1429 32.4369C61.1429 39.9788 58.1327 47.2118 52.7745 52.5448C47.4163 57.8777 40.149 60.8737 32.5714 60.8737ZM32.5714 53.7645C38.2546 53.7645 43.7051 51.5175 47.7237 47.5178C51.7424 43.5181 54 38.0933 54 32.4369C54 26.7804 51.7424 21.3557 47.7237 17.3559C43.7051 13.3562 38.2546 11.1092 32.5714 11.1092C26.8882 11.1092 21.4378 13.3562 17.4191 17.3559C13.4005 21.3557 11.1429 26.7804 11.1429 32.4369C11.1429 38.0933 13.4005 43.5181 17.4191 47.5178C21.4378 51.5175 26.8882 53.7645 32.5714 53.7645Z" fill="#2EE435"/>
    <path d="M32.5714 60.3737C25.1257 60.3737 17.9853 57.4298 12.7211 52.1904C7.45694 46.951 4.5 39.8454 4.5 32.4369C4.5 25.0283 7.45694 17.9227 12.7211 12.6834C17.9853 7.44391 25.1257 4.5 32.5714 4.5C40.0172 4.5 47.1575 7.44391 52.4218 12.6834C57.6859 17.9227 60.6429 25.0283 60.6429 32.4369C60.6429 39.8454 57.6859 46.951 52.4218 52.1904C47.1575 57.4298 40.0172 60.3737 32.5714 60.3737ZM32.5714 54.2645C38.3865 54.2645 43.9638 51.9654 48.0764 47.8722C52.1891 43.7789 54.5 38.2267 54.5 32.4369C54.5 26.6471 52.1891 21.0948 48.0764 17.0016C43.9638 12.9083 38.3865 10.6092 32.5714 10.6092C26.7564 10.6092 21.179 12.9083 17.0664 17.0016C12.9538 21.0948 10.6429 26.6471 10.6429 32.4369C10.6429 38.2267 12.9538 43.7789 17.0664 47.8722C21.179 51.9654 26.7564 54.2645 32.5714 54.2645Z" stroke="#00FF0A"/>
  </g>
  <defs>
    <filter id="filter0_df_28_54" x="0" y="0" width="65.1431" height="68.8735" filterUnits="userSpaceOnUse" color-interpolation-filters="sRGB">
      <feFlood flood-opacity="0" result="BackgroundImageFix"/>
      <feColorMatrix in="SourceAlpha" type="matrix" values="0 0 0 0 0 0 0 0 0 0 0 0 0 0 0 0 0 0 127 0" result="hardAlpha"/>
      <feOffset dy="4"/>
      <feGaussianBlur stdDeviation="2"/>
      <feComposite in2="hardAlpha" operator="out"/>
      <feColorMatrix type="matrix" values="0 0 0 0 0 0 0 0 0 0 0 0 0 0 0 0 0 0 0.25 0"/>
      <feBlend mode="normal" in2="BackgroundImageFix" result="effect1_dropShadow_28_54"/>
      <feBlend mode="normal" in="SourceGraphic" in2="effect1_dropShadow_28_54" result="shape"/>
      <feGaussianBlur stdDeviation="2" result="effect2_foregroundBlur_28_54"/>
    </filter>
  </defs>
</svg>