<svg xmlns="http://www.w3.org/2000/svg" width="22" height="22" viewBox="0 0 22 22" fill="none">
  <g>
    <path d="M11 1C9.02219 1 7.08879 1.58649 5.4443 2.6853C3.79981 3.78412 2.51809 5.3459 1.76121 7.17316C1.00433 9.00042 0.8063 11.0111 1.19215 12.9509C1.578 14.8907 2.53041 16.6725 3.92894 18.0711C5.32746 19.4696 7.10929 20.422 9.0491 20.8078C10.9889 21.1937 12.9996 20.9957 14.8268 20.2388C16.6541 19.4819 18.2159 18.2002 19.3147 16.5557C20.4135 14.9112 21 12.9778 21 11C21 8.34783 19.9464 5.8043 18.0711 3.92893C16.1957 2.05357 13.6522 1 11 1ZM11 13.5C10.5055 13.5 10.0222 13.3534 9.61108 13.0787C9.19995 12.804 8.87952 12.4135 8.6903 11.9567C8.50108 11.4999 8.45158 10.9972 8.54804 10.5123C8.6445 10.0273 8.8826 9.58186 9.23223 9.23223C9.58187 8.8826 10.0273 8.6445 10.5123 8.54803C10.9972 8.45157 11.4999 8.50108 11.9567 8.6903C12.4135 8.87952 12.804 9.19995 13.0787 9.61107C13.3534 10.0222 13.5 10.5055 13.5 11C13.5 11.663 13.2366 12.2989 12.7678 12.7678C12.2989 13.2366 11.663 13.5 11 13.5Z" fill-opacity="0.9"/>
  </g>
  <defs>
    <filter id="filter0_f_49_39" x="0" y="0" width="22" height="22" filterUnits="userSpaceOnUse" color-interpolation-filters="sRGB">
      <feFlood flood-opacity="0" result="BackgroundImageFix"/>
      <feBlend mode="normal" in="SourceGraphic" in2="BackgroundImageFix" result="shape"/>
      <feGaussianBlur stdDeviation="0.5" result="effect1_foregroundBlur_49_39"/>
    </filter>
  </defs>
</svg>