<svg width="23" height="20" viewBox="0 0 23 20" fill="none" xmlns="http://www.w3.org/2000/svg">
<path d="M21.0081 0.000622216L1.85171 0.00702862C0.390939 0.00751714 -0.496057 1.66606 0.299475 2.94283L9.88291 18.4547C10.0498 18.7262 10.2805 18.9499 10.5538 19.1048C10.827 19.2598 11.1338 19.341 11.4457 19.3409C11.7575 19.3408 12.0643 19.2594 12.3374 19.1042C12.6105 18.9491 12.8412 18.7253 13.0078 18.4536L22.5623 2.93538C22.7426 2.64783 22.8443 2.31545 22.8566 1.9733C22.8689 1.63116 22.7913 1.29193 22.6322 0.991409C22.473 0.690887 22.2381 0.440213 21.9523 0.265831C21.6665 0.0914486 21.3402 -0.000176263 21.0081 0.000622216Z" fill="#2254FF"/>
</svg>
